<svg width="24" height="22" viewBox="0 0 24 22" fill="none" xmlns="http://www.w3.org/2000/svg">
    <g clip-path="url(#clip0_2057_124)">
        <path d="M14.3003 5.22498C13.9103 5.58248 13.9103 6.15998 14.3003 6.51748L18.1703 10.0833L3.00027 10.0833C2.45027 10.0833 2.00027 10.4958 2.00027 11C2.00027 11.5041 2.45027 11.9166 3.00027 11.9166L18.1703 11.9166L14.2903 15.4733C13.9003 15.8308 13.9003 16.4083 14.2903 16.7658C14.6803 17.1233 15.3103 17.1233 15.7003 16.7658L21.3003 11.6416C21.6903 11.2841 21.6903 10.7066 21.3003 10.3491L15.7103 5.22498C15.3203 4.87665 14.6803 4.87665 14.3003 5.22498Z" fill="#0BA6B8"/>
    </g>
    <defs>
        <clipPath id="clip0_2057_124">
            <rect width="24" height="22" fill="white" transform="matrix(-1 0 0 -1 24 22)"/>
        </clipPath>
    </defs>
</svg>
